<svg width="105" height="32" viewBox="0 0 105 32" fill="none" xmlns="http://www.w3.org/2000/svg">
<g clip-path="url(#clip0_2121_27643)">
<path d="M8.36701 6.07139C8.60008 5.97816 12.9351 5.97816 13.0284 6.07139C13.8208 7.00366 14.8463 8.14569 15.5222 9.17119C15.9883 9.8937 16.1748 10.6628 15.9184 11.4786C15.8019 11.8282 15.6154 12.1311 15.359 12.3875C14.2869 13.5762 13.1682 14.7415 12.0029 15.8602C11.8397 16.0234 11.8397 16.0933 12.0029 16.2564C13.1449 17.3519 14.2636 18.4706 15.3124 19.6359C16.1282 20.5682 16.2447 21.6869 15.5921 22.759C14.9628 23.7845 14.1937 24.6935 13.4479 25.6491C13.2614 25.8821 13.075 25.9754 12.772 25.9754C11.4202 25.9987 10.0684 26.0453 8.71661 26.022C8.11063 26.022 7.85426 25.5325 8.15725 25.0198C8.71661 24.0875 9.41581 23.2485 10.0451 22.3861C10.4646 21.8035 10.9074 21.2208 11.2804 20.5915C11.7698 19.7758 11.6066 19.0999 10.7909 18.6104C10.5345 18.4473 10.2082 18.4706 9.92856 18.4473C8.06402 18.3541 6.19948 18.4706 4.33494 18.4706C3.19291 18.4706 2.05087 18.5172 0.932148 18.5405C0.605853 18.5405 0.442706 18.424 0.396092 18.0977C0.372785 17.818 0.349479 17.5383 0.349479 17.2586C0.349479 16.3497 0.349479 15.4174 0.326172 14.5084C0.326172 14.2754 0.419399 14.0889 0.512626 13.9025C0.55924 13.6694 0.745694 13.6461 0.932148 13.6461C3.37936 13.6694 5.80326 13.6927 8.25047 13.716C8.99629 13.716 9.74211 13.716 10.4646 13.6228C11.3736 13.4829 11.863 12.5274 11.4202 11.7116C11.1405 11.2222 10.8142 10.7794 10.4879 10.3132C9.74211 9.28772 8.97299 8.30884 8.25047 7.26003C8.13394 7.09688 8.01741 6.91043 8.01741 6.70067C7.9941 6.39768 8.15725 6.21123 8.36701 6.07139Z" fill="black"/>
</g>
<path d="M21.3165 5.64628H29.8649C30.745 5.64628 31.5435 5.74783 32.2604 5.95094C32.9772 6.15006 33.5885 6.4368 34.0943 6.81115C34.604 7.1855 34.9963 7.63951 35.2711 8.17316C35.5459 8.70681 35.6833 9.30617 35.6833 9.97124C35.6833 10.5606 35.5778 11.0983 35.3667 11.5841C35.1596 12.066 34.8729 12.4802 34.5065 12.8267C34.1441 13.1731 33.712 13.444 33.2102 13.6391C32.7124 13.8303 32.1727 13.9258 31.5913 13.9258V13.8661C32.2803 13.8661 32.9175 13.9716 33.5029 14.1827C34.0923 14.3898 34.6001 14.6805 35.0262 15.0549C35.4563 15.4292 35.7928 15.8792 36.0357 16.4049C36.2827 16.9266 36.4061 17.5021 36.4061 18.1313C36.4061 18.8322 36.2508 19.4674 35.9402 20.0369C35.6335 20.6024 35.2014 21.0863 34.6439 21.4885C34.0863 21.8868 33.4193 22.1934 32.6427 22.4085C31.8661 22.6236 31.0099 22.7311 30.074 22.7311H21.3165V5.64628ZM25.0919 19.7801L25.0202 19.7084H29.8052C30.2751 19.7084 30.6853 19.6666 31.0357 19.5829C31.3902 19.4953 31.6849 19.3659 31.9199 19.1946C32.1588 19.0194 32.336 18.8004 32.4515 18.5375C32.571 18.2747 32.6307 17.9641 32.6307 17.6056C32.6307 17.2472 32.571 16.9366 32.4515 16.6737C32.336 16.4109 32.1588 16.1939 31.9199 16.0226C31.6849 15.8474 31.3902 15.7179 31.0357 15.6343C30.6853 15.5507 30.2771 15.5089 29.8111 15.5089H25.0202L25.0919 15.4372V19.7801ZM29.4826 12.749C29.849 12.749 30.1835 12.7012 30.4862 12.6056C30.7888 12.5061 31.0477 12.3667 31.2627 12.1875C31.4818 12.0083 31.649 11.7872 31.7645 11.5244C31.884 11.2616 31.9438 10.9669 31.9438 10.6403C31.9438 10.3217 31.886 10.0409 31.7705 9.798C31.659 9.55109 31.4977 9.344 31.2866 9.17674C31.0756 9.00948 30.8167 8.88403 30.5101 8.8004C30.2034 8.71278 29.8569 8.66898 29.4706 8.66898H25.0202L25.0919 8.59729V12.8207L25.0202 12.749H29.4826ZM41.1694 16.7156V22.7311H37.5911V9.55906H41.1694V14.2006L41.1574 14.2185C41.269 13.5017 41.4402 12.8565 41.6712 12.2831C41.9022 11.7056 42.1989 11.2158 42.5613 10.8135C42.9237 10.4113 43.3538 10.1027 43.8516 9.88761C44.3494 9.66857 44.9229 9.55906 45.572 9.55906H46.3546V12.9282H44.9746C44.2419 12.9282 43.6306 13.0039 43.1407 13.1552C42.6549 13.3066 42.2646 13.5375 41.9699 13.8482C41.6792 14.1588 41.4721 14.5531 41.3486 15.031C41.2291 15.5049 41.1694 16.0664 41.1694 16.7156ZM50.3706 16.381C50.3706 16.9784 50.4462 17.516 50.5976 17.9939C50.7529 18.4678 50.9739 18.8701 51.2607 19.2006C51.5474 19.5312 51.8959 19.786 52.3061 19.9653C52.7202 20.1405 53.1882 20.2281 53.7099 20.2281C54.0564 20.2281 54.375 20.1883 54.6657 20.1086C54.9604 20.025 55.2252 19.9015 55.4602 19.7383C55.6991 19.571 55.9102 19.3659 56.0934 19.123C56.2806 18.876 56.4379 18.5913 56.5653 18.2687H59.9285C59.7493 19.0174 59.4685 19.6905 59.0862 20.2878C58.7039 20.8852 58.2399 21.391 57.6943 21.8052C57.1527 22.2193 56.5354 22.5359 55.8425 22.755C55.1535 22.978 54.4088 23.0895 53.6083 23.0895C52.6127 23.0895 51.7067 22.9222 50.8903 22.5877C50.0739 22.2532 49.373 21.7813 48.7875 21.1719C48.2061 20.5586 47.7541 19.8259 47.4315 18.9736C47.1129 18.1174 46.9536 17.1696 46.9536 16.1301C46.9536 15.0987 47.1109 14.1568 47.4255 13.3046C47.7441 12.4523 48.1922 11.7235 48.7696 11.1182C49.3471 10.5089 50.04 10.037 50.8485 9.70243C51.6569 9.3679 52.553 9.20063 53.5366 9.20063C54.5084 9.20063 55.3905 9.36591 56.183 9.69645C56.9795 10.023 57.6585 10.489 58.22 11.0943C58.7855 11.6957 59.2216 12.4225 59.5283 13.2747C59.8349 14.123 59.9882 15.0688 59.9882 16.1122C59.9882 16.2715 59.9843 16.4328 59.9763 16.5961C59.9683 16.7554 59.9564 16.9187 59.9405 17.0859H49.1699V14.8757H58.0528L56.6012 17.0501C56.6171 16.8948 56.627 16.7414 56.631 16.5901C56.639 16.4348 56.643 16.2835 56.643 16.1361C56.643 15.4591 56.5753 14.8657 56.4399 14.3559C56.3084 13.8422 56.1133 13.4121 55.8544 13.0656C55.5956 12.7191 55.273 12.4583 54.8867 12.2831C54.5044 12.1039 54.0603 12.0143 53.5546 12.0143C53.0528 12.0143 52.6047 12.1019 52.2105 12.2771C51.8162 12.4523 51.4817 12.7072 51.2069 13.0417C50.9361 13.3723 50.729 13.7785 50.5856 14.2604C50.4423 14.7422 50.3706 15.2878 50.3706 15.8972V16.381ZM64.3948 16.381C64.3948 16.9784 64.4705 17.516 64.6218 17.9939C64.7771 18.4678 64.9981 18.8701 65.2849 19.2006C65.5716 19.5312 65.9201 19.786 66.3303 19.9653C66.7444 20.1405 67.2124 20.2281 67.7341 20.2281C68.0806 20.2281 68.3992 20.1883 68.6899 20.1086C68.9846 20.025 69.2494 19.9015 69.4844 19.7383C69.7233 19.571 69.9344 19.3659 70.1176 19.123C70.3048 18.876 70.4621 18.5913 70.5895 18.2687H73.9527C73.7735 19.0174 73.4927 19.6905 73.1104 20.2878C72.7281 20.8852 72.2642 21.391 71.7186 21.8052C71.1769 22.2193 70.5597 22.5359 69.8667 22.755C69.1777 22.978 68.433 23.0895 67.6325 23.0895C66.6369 23.0895 65.7309 22.9222 64.9145 22.5877C64.0981 22.2532 63.3972 21.7813 62.8118 21.1719C62.2303 20.5586 61.7783 19.8259 61.4557 18.9736C61.1371 18.1174 60.9778 17.1696 60.9778 16.1301C60.9778 15.0987 61.1351 14.1568 61.4498 13.3046C61.7683 12.4523 62.2164 11.7235 62.7938 11.1182C63.3713 10.5089 64.0642 10.037 64.8727 9.70243C65.6811 9.3679 66.5772 9.20063 67.5609 9.20063C68.5326 9.20063 69.4147 9.36591 70.2072 9.69645C71.0037 10.023 71.6827 10.489 72.2442 11.0943C72.8097 11.6957 73.2458 12.4225 73.5525 13.2747C73.8591 14.123 74.0125 15.0688 74.0125 16.1122C74.0125 16.2715 74.0085 16.4328 74.0005 16.5961C73.9925 16.7554 73.9806 16.9187 73.9647 17.0859H63.1941V14.8757H72.077L70.6254 17.0501C70.6413 16.8948 70.6512 16.7414 70.6552 16.5901C70.6632 16.4348 70.6672 16.2835 70.6672 16.1361C70.6672 15.4591 70.5995 14.8657 70.4641 14.3559C70.3327 13.8422 70.1375 13.4121 69.8786 13.0656C69.6198 12.7191 69.2972 12.4583 68.9109 12.2831C68.5286 12.1039 68.0845 12.0143 67.5788 12.0143C67.077 12.0143 66.629 12.1019 66.2347 12.2771C65.8404 12.4523 65.5059 12.7072 65.2311 13.0417C64.9603 13.3723 64.7532 13.7785 64.6098 14.2604C64.4665 14.7422 64.3948 15.2878 64.3948 15.8972V16.381ZM84.7571 5.04891H88.3353V22.7311H84.7571V18.669L84.775 18.651C84.6316 19.352 84.4266 19.9792 84.1597 20.5328C83.8929 21.0823 83.5703 21.5463 83.192 21.9246C82.8176 22.303 82.3875 22.5917 81.9017 22.7908C81.4198 22.9899 80.8941 23.0895 80.3246 23.0895C79.8029 23.0895 79.3091 23.0118 78.8431 22.8565C78.3772 22.7052 77.9471 22.4862 77.5528 22.1994C77.1585 21.9087 76.8021 21.5582 76.4835 21.148C76.1689 20.7379 75.9021 20.2759 75.683 19.7621C75.464 19.2444 75.2947 18.6829 75.1753 18.0776C75.0598 17.4682 75.002 16.8231 75.002 16.1421C75.002 15.4611 75.0598 14.8179 75.1753 14.2126C75.2947 13.6033 75.464 13.0417 75.683 12.528C75.9021 12.0143 76.1689 11.5523 76.4835 11.1421C76.8021 10.7279 77.1585 10.3775 77.5528 10.0907C77.9471 9.80398 78.3772 9.58494 78.8431 9.43361C79.3091 9.27829 79.8029 9.20063 80.3246 9.20063C80.8941 9.20063 81.4198 9.3002 81.9017 9.49932C82.3875 9.69844 82.8176 9.98717 83.192 10.3655C83.5703 10.7438 83.8929 11.2078 84.1597 11.7574C84.4266 12.307 84.6316 12.9322 84.775 13.6331L84.7571 13.6212V5.04891ZM84.7571 16.1421C84.7571 15.7319 84.7252 15.3516 84.6615 15.0011C84.6018 14.6506 84.5122 14.332 84.3927 14.0453C84.2732 13.7586 84.1239 13.5057 83.9447 13.2866C83.7694 13.0676 83.5663 12.8844 83.3354 12.7371C83.1044 12.5857 82.8475 12.4722 82.5647 12.3966C82.286 12.3209 81.9833 12.2831 81.6567 12.2831C81.155 12.2831 80.7129 12.3647 80.3306 12.528C79.9522 12.6913 79.6336 12.9362 79.3748 13.2628C79.1199 13.5853 78.9268 13.9876 78.7953 14.4694C78.6679 14.9513 78.6042 15.5089 78.6042 16.1421C78.6042 16.7753 78.6699 17.3328 78.8013 17.8147C78.9327 18.2966 79.1259 18.7008 79.3808 19.0274C79.6356 19.3539 79.9522 19.5989 80.3306 19.7621C80.7129 19.9254 81.155 20.0071 81.6567 20.0071C81.9833 20.0071 82.286 19.9692 82.5647 19.8936C82.8475 19.8179 83.1044 19.7064 83.3354 19.559C83.5663 19.4077 83.7694 19.2225 83.9447 19.0035C84.1239 18.7805 84.2732 18.5256 84.3927 18.2389C84.5122 17.9521 84.6018 17.6335 84.6615 17.2831C84.7252 16.9326 84.7571 16.5523 84.7571 16.1421ZM93.4393 9.55906V21.7992C93.4393 22.4842 93.3935 23.1034 93.3019 23.657C93.2103 24.2106 93.069 24.7024 92.8778 25.1325C92.6906 25.5666 92.4497 25.939 92.155 26.2496C91.8603 26.5602 91.5098 26.8171 91.1036 27.0202C90.7014 27.2233 90.2414 27.3726 89.7237 27.4682C89.206 27.5678 88.6265 27.6176 87.9853 27.6176H87.5074V24.6546H87.8897C88.2004 24.6546 88.4652 24.6188 88.6842 24.5471C88.8993 24.4754 89.0805 24.3778 89.2279 24.2544C89.3752 24.1309 89.4907 23.9875 89.5743 23.8243C89.658 23.661 89.7217 23.4877 89.7655 23.3046C89.8093 23.1214 89.8352 22.9342 89.8431 22.743C89.8551 22.5519 89.8611 22.3687 89.8611 22.1934V9.55906H93.4393ZM93.4752 5.04891V8.17913H89.8252V5.04891H93.4752ZM98.5496 16.7156V22.7311H94.9714V9.55906H98.5496V14.2006L98.5377 14.2185C98.6492 13.5017 98.8204 12.8565 99.0514 12.2831C99.2824 11.7056 99.5791 11.2158 99.9415 10.8135C100.304 10.4113 100.734 10.1027 101.232 9.88761C101.73 9.66857 102.303 9.55906 102.952 9.55906H103.735V12.9282H102.355C101.622 12.9282 101.011 13.0039 100.521 13.1552C100.035 13.3066 99.6448 13.5375 99.3501 13.8482C99.0594 14.1588 98.8523 14.5531 98.7289 15.031C98.6094 15.5049 98.5496 16.0664 98.5496 16.7156Z" fill="black"/>
<defs>
<clipPath id="clip0_2121_27643">
<rect width="16.3147" height="20.51" fill="white" transform="translate(0 5.74512)"/>
</clipPath>
</defs>
</svg>
